<svg width="2176" height="395" viewBox="0 0 2176 395" fill="none" xmlns="http://www.w3.org/2000/svg">
<path d="M84.8398 239.925C84.8398 201.13 116.289 169.681 155.083 169.681H262.301L282.259 84.8412H155.083L153.079 84.8537C68.3525 85.9269 0 154.944 0 239.925C0 324.906 68.3525 393.922 153.079 394.996L155.083 395.008H209.292L229.251 310.168H155.083C116.289 310.168 84.8398 278.719 84.8398 239.925Z" fill="#FA5108"/>
<path d="M441.151 155.083C441.151 116.289 409.702 84.8397 370.907 84.8397H281.99L301.949 0H370.907C456.558 0 525.991 69.4332 525.991 155.083C525.991 240.734 456.558 310.167 370.907 310.167H228.981L248.94 225.327H370.907C409.702 225.327 441.151 193.878 441.151 155.083Z" fill="#FA5108"/>
<path d="M2143.87 76.7656C2150.23 76.7656 2155.77 77.8923 2160.47 80.1458C2165.27 82.3012 2168.95 85.3874 2171.49 89.4044C2174.14 93.3234 2175.46 97.8303 2175.46 102.925C2175.46 105.57 2175.22 107.873 2174.73 109.832L2174.43 111.449C2172.57 120.169 2168.46 127.027 2162.09 132.024C2155.82 137.02 2147.93 139.519 2138.43 139.519C2132.06 139.519 2126.48 138.441 2121.67 136.286C2116.97 134.13 2113.3 131.093 2110.65 127.174C2108.1 123.255 2106.83 118.748 2106.83 113.653C2106.83 110.91 2107.08 108.559 2107.57 106.599L2107.86 104.983C2109.72 96.1647 2113.79 89.2575 2120.06 84.2607C2126.43 79.264 2134.36 76.7656 2143.87 76.7656ZM2167.97 108.657C2168.46 106.403 2168.7 104.444 2168.7 102.778C2168.7 96.8016 2166.45 92.0008 2161.94 88.3757C2157.53 84.6526 2151.51 82.7911 2143.87 82.7911C2136.03 82.7911 2129.61 84.7506 2124.61 88.6696C2119.62 92.5886 2116.29 98.2712 2114.62 105.717L2114.18 107.628C2113.79 109.489 2113.59 111.4 2113.59 113.359C2113.59 119.434 2115.8 124.333 2120.2 128.056C2124.71 131.681 2130.79 133.493 2138.43 133.493C2146.27 133.493 2152.63 131.534 2157.53 127.615C2162.53 123.696 2165.86 118.062 2167.53 110.714L2167.97 108.657ZM2149.89 92.7846C2153.12 92.7846 2155.62 93.5194 2157.39 94.989C2159.15 96.3607 2160.03 98.3202 2160.03 100.868C2160.03 101.651 2159.98 102.239 2159.88 102.631L2159.74 103.66C2159.25 106.207 2157.97 108.314 2155.92 109.979C2153.86 111.547 2151.16 112.429 2147.83 112.625L2154.74 122.618L2154.59 123.206H2147.69L2140.49 112.625H2132.11L2129.76 123.206H2122.56L2129.32 92.7846H2149.89ZM2152.68 102.337C2152.98 100.966 2152.68 99.8878 2151.8 99.104C2150.92 98.2222 2149.6 97.7813 2147.83 97.7813H2135.34L2133.28 107.481H2145.78C2149.79 107.481 2152.05 106.06 2152.54 103.219L2152.68 102.337Z" fill="white"/>
<path d="M904.279 76.9919L978.661 318.944H879.928L871.2 289.522H664.328L642.946 318.944H549.793L731.443 76.9919H904.279ZM710.655 227.563H853.201L825.286 137.567H780.74L710.655 227.563Z" fill="white"/>
<path d="M1303.7 167.681C1331.39 167.681 1342.01 179.345 1342.01 206.69L1322.58 269.1C1318.85 297.563 1300.43 318.944 1272.74 318.944H949.093L1002.28 76.9919H1277.27C1308.16 76.9919 1318.85 104.533 1318.85 130.072C1318.85 140.803 1310.53 159.175 1301.62 167.681H1303.7ZM1082.46 137.567L1076.52 167.681H1200.27C1208.58 167.681 1215.5 160.758 1215.5 152.451C1215.5 144.143 1208.58 137.567 1200.27 137.567H1082.46ZM1224.87 258.716V258.37C1233.53 258.37 1240.45 251.793 1240.45 243.14C1240.45 234.486 1233.53 227.563 1224.87 227.563H1064.05L1056.92 258.716H1224.87Z" fill="white"/>
<path d="M1677.74 169.866C1697.19 169.866 1694.22 217.381 1694.22 217.381L1686.5 263.708C1686.5 291.399 1650.04 318.944 1622.35 318.944H1302.47L1355.67 76.9919H1624.38C1657.95 76.9919 1676.4 95.6238 1674.62 130.072C1673.82 145.515 1663.18 157.303 1657.99 166.302L1677.74 169.866ZM1440.61 137.567L1432.29 167.681H1558.8C1567.11 167.681 1574.03 160.758 1574.03 152.451C1574.03 144.143 1567.11 137.567 1558.8 137.567H1440.61ZM1580.77 258.716V258.37C1589.43 258.37 1596.35 251.793 1596.35 243.14C1596.35 234.486 1589.43 227.563 1580.77 227.563H1419.22L1410.31 258.716H1580.77Z" fill="white"/>
<path d="M1981.09 78.9935L2078.49 76.9919L2048.2 207.878C2045.23 235.199 2006.63 258.37 1989.4 258.37H1897.94L1885.4 318.944H1788.82L1801.13 258.37H1717.14C1689.79 258.37 1676.31 234.629 1676.31 207.284L1703.48 76.9919H1797.91L1779.74 171.054C1776.18 190.654 1779.74 198.141 1817.51 198.141H1902.36C1926.45 198.141 1954.96 198.141 1960.9 175.211L1981.09 78.9935Z" fill="white"/>
</svg>
